# xmcd
#
# Track frame offsets:
#	150
#	18076
#	34353
#	51664
#	68464
#	81956
#	104526
#	119168
#	135059
#	151747
#	166215
#
# Disc length: 2427 seconds
#
# Revision: 1
# Processed by: cddbd v1.5.2PL0 Copyright (c) Steve Scherf et al.
# Submitted via: EZCDAudioConverter 4.0.5.1
#
DISCID=8909790b
DTITLE=Ashley Gearing - Maybe It's Time
DYEAR=2006
DGENRE=Country
TTITLE0=I Found It in You
TTITLE1=Too Bad You're No Good
TTITLE2=Love Has a Life of It's Own
TTITLE3=Maybe It's Time
TTITLE4=Out There Somewhere
TTITLE5=Ode to Billy Joe
TTITLE6=Sunday Paper
TTITLE7=Back to Blue
TTITLE8=Don't It Feel Good
TTITLE9=Girls
TTITLE10=Maybe It's Just the Moon
EXTD=
EXTT0=
EXTT1=
EXTT2=
EXTT3=
EXTT4=
EXTT5=
EXTT6=
EXTT7=
EXTT8=
EXTT9=
EXTT10=
PLAYORDER=
